<svg xmlns="http://www.w3.org/2000/svg" viewBox="0 0 545.16 47.86" width="545.16" height="47.86"><defs><style>.cls-1{fill:#fff;}</style></defs><title>Asset 4</title><g id="Layer_2" data-name="Layer 2"><g id="Layer_1-2" data-name="Layer 1"><path class="cls-1" d="M30.3,34.31a12,12,0,0,1-4.53,9.92q-4.53,3.63-12.61,3.63A29.61,29.61,0,0,1,0,45.06V35.9a54.17,54.17,0,0,0,8,3,23.57,23.57,0,0,0,6,.86,8.47,8.47,0,0,0,5-1.24,4.24,4.24,0,0,0,1.73-3.69,4.07,4.07,0,0,0-.76-2.43,8.54,8.54,0,0,0-2.24-2.05,57.83,57.83,0,0,0-6-3.15,28.49,28.49,0,0,1-6.39-3.85A14.42,14.42,0,0,1,1.81,19,12.25,12.25,0,0,1,.54,13.29a12,12,0,0,1,4.18-9.7Q8.9.06,16.28.06A27.26,27.26,0,0,1,23.2.92a47.63,47.63,0,0,1,6.88,2.42L26.9,11a46.6,46.6,0,0,0-6.15-2.13A19.83,19.83,0,0,0,16,8.27a6.34,6.34,0,0,0-4.29,1.3A4.3,4.3,0,0,0,10.18,13a4.21,4.21,0,0,0,.6,2.27,6.64,6.64,0,0,0,1.92,1.88A59.45,59.45,0,0,0,19,20.38q6.52,3.12,8.94,6.25A12.2,12.2,0,0,1,30.3,34.31Z"/><path class="cls-1" d="M65.51,47.22H38.73V.73H65.51V8.81H48.59V19H64.33v8.08H48.59v12H65.51Z"/><path class="cls-1" d="M95,8.27a10,10,0,0,0-8.62,4.18q-3.05,4.18-3.05,11.65,0,15.55,11.67,15.55a36.88,36.88,0,0,0,11.86-2.45v8.27A32.94,32.94,0,0,1,94,47.86q-10.14,0-15.52-6.15T73.14,24a28.84,28.84,0,0,1,2.64-12.7A19.07,19.07,0,0,1,83.36,3,22.44,22.44,0,0,1,95,.06a31.3,31.3,0,0,1,13.61,3.28l-3.18,8a52.73,52.73,0,0,0-5.25-2.16A15.64,15.64,0,0,0,95,8.27Z"/><path class="cls-1" d="M154.54.73V30.81a17.35,17.35,0,0,1-2.31,9,15,15,0,0,1-6.66,5.95,23.83,23.83,0,0,1-10.3,2.07q-9,0-13.93-4.59t-5-12.58V.73h9.83V29.19q0,5.37,2.16,7.89t7.15,2.51q4.83,0,7-2.53t2.18-7.93V.73Z"/><path class="cls-1" d="M175.78,29.38V47.22h-9.86V.73h13.55q9.48,0,14,3.45T198,14.66a12.33,12.33,0,0,1-2.26,7.3,14.94,14.94,0,0,1-6.39,5q10.49,15.68,13.67,20.26H192.13L181,29.38Zm0-8H179q4.67,0,6.9-1.56a5.56,5.56,0,0,0,2.23-4.9,5.09,5.09,0,0,0-2.27-4.71q-2.27-1.4-7-1.4h-3Z"/><path class="cls-1" d="M208.92,47.22V.73h9.86V47.22Z"/><path class="cls-1" d="M248.41,47.22h-9.86V8.94H225.93V.73H261v8.2H248.41Z"/><path class="cls-1" d="M282.66,19.88,292.36.73H303l-15.42,28.4V47.22h-9.79V29.45L262.34.73H273Z"/><path class="cls-1" d="M367.94,23.91q0,11.54-5.72,17.74t-16.41,6.2q-10.68,0-16.41-6.2t-5.72-17.81q0-11.61,5.74-17.73T345.88,0q10.72,0,16.39,6.17T367.94,23.91Zm-33.93,0q0,7.79,3,11.73t8.84,3.94q11.8,0,11.8-15.68T345.88,8.2q-5.88,0-8.87,4T334,23.91Z"/><path class="cls-1" d="M418.82,47.22H406.29L386.07,12.05h-.29q.6,9.32.6,13.29V47.22h-8.81V.73H390l20.19,34.82h.22Q410,26.49,410,22.74V.73h8.87Z"/><path class="cls-1" d="M430.53,47.22V.73h9.86V47.22Z"/><path class="cls-1" d="M494.28,23.91q0,11.54-5.72,17.74t-16.41,6.2q-10.68,0-16.41-6.2T450,23.85q0-11.61,5.74-17.73T472.21,0q10.72,0,16.39,6.17T494.28,23.91Zm-33.93,0q0,7.79,3,11.73t8.84,3.94q11.8,0,11.8-15.68T472.21,8.2q-5.88,0-8.87,4T460.35,23.91Z"/><path class="cls-1" d="M545.16,47.22H532.63L512.41,12.05h-.29q.6,9.32.6,13.29V47.22h-8.81V.73h12.43l20.19,34.82h.22q-.48-9.06-.48-12.82V.73h8.87Z"/></g></g></svg>